<?xml version="1.0" standalone="no"?>
 <!DOCTYPE svg PUBLIC "-//W3C//DTD SVG 1.1//EN" 
 "http://www.w3.org/Graphics/SVG/1.1/DTD/svg11.dtd"> 
<svg
  xmlns:svg="http://www.w3.org/2000/svg"
  xmlns="http://www.w3.org/2000/svg"
  xmlns:xlink="http://www.w3.org/1999/xlink"
  version="1.1"
  width="297.0022mm" height="210.0072mm" viewBox="0.0000 0.0000 297.0022 210.0072">
<title>SVG Image created as sketchfan-Edge_Cuts.svg date 2025/03/17 13:32:42 </title>
  <desc>Image generated by PCBNEW </desc>
<g style="fill:#000000; fill-opacity:1.0000;stroke:#000000; stroke-opacity:1.0000;
stroke-linecap:round; stroke-linejoin:round;"
 transform="translate(0 0) scale(1 1)">
</g>
<g style="fill:none; 
stroke:#000000; stroke-width:0.0500; stroke-opacity:1; 
stroke-linecap:round; stroke-linejoin:round;">
<path d="M41.3089 0.7837
L92.3089 4.2837
" />
<path d="M90.3089 110.7837
L15.3089 90.7837
" />
<path d="M124.3089 124.7837
L108.3089 115.7837
" />
<path d="M140.3089 137.7837 A1.4142 1.4142 0.0 0 0 142.3089 137.7837" />
<path d="M92.3089 4.2837
L141.3089 20.7837
" />
<path d="M162.3089 137.7837
L178.3089 124.7837
" />
<path d="M301.3089 64.7837
L287.3089 12.7837
" />
<path d="M140.3089 137.7837
L124.3089 124.7837
" />
<path d="M212.3089 110.7837
L287.3089 90.7837
" />
<path d="M149.3089 130.7837
L142.3089 137.7837
" />
<path d="M301.3089 64.7837
L287.3089 90.7837
" />
<path d="M178.3089 124.7837
L194.3089 115.7837
" />
<path d="M1.3089 64.7837
L15.3089 90.7837
" />
<path d="M210.3089 4.2837
L161.3089 20.7837
" />
<path d="M15.3089 12.7837
L41.3089 0.7837
" />
<path d="M161.3089 20.7837
L141.3089 20.7837
" />
<path d="M287.3089 12.7837
L261.3089 0.7837
" />
<path d="M153.3089 130.7837
L160.3089 137.7837
" />
<path d="M153.3089 130.7837 A2.8284 2.8284 0.0 0 0 149.3089 130.7837" />
<path d="M261.3089 0.7837
L210.3089 4.2837
" />
<path d="M108.3089 115.7837
L90.3089 110.7837
" />
<path d="M160.3089 137.7837 A1.4142 1.4142 0.0 0 0 162.3089 137.7837" />
<path d="M194.3089 115.7837
L212.3089 110.7837
" />
<path d="M1.3089 64.7837
L15.3089 12.7837
" />
</g> 
</svg>
